<?xml version="1.0" encoding="iso-8859-1"?>
<!-- Generator: Adobe Illustrator 19.0.0, SVG Export Plug-In . SVG Version: 6.00 Build 0)  -->
<svg version="1.1" id="Layer_1" xmlns="http://www.w3.org/2000/svg" xmlns:xlink="http://www.w3.org/1999/xlink" x="0px" y="0px"
	 viewBox="0 0 512.001 512.001" style="enable-background:new 0 0 512.001 512.001;" xml:space="preserve">
<g>
	<g>
		<path d="M511.192,197.129c-1.964-6.045-7.223-10.426-13.524-11.266l-157.944-21.052l-68.83-143.709
			c-2.746-5.733-8.537-9.381-14.894-9.381c-6.357,0-12.148,3.648-14.894,9.381l-68.83,143.708L14.333,185.862
			c-6.301,0.84-11.56,5.222-13.524,11.266s-0.285,12.682,4.319,17.064l115.405,109.869L91.748,480.781
			c-1.148,6.252,1.393,12.608,6.536,16.344c5.141,3.736,11.97,4.189,17.563,1.165l140.155-75.806l140.155,75.806
			c5.588,3.023,12.418,2.572,17.563-1.165c5.143-3.736,7.683-10.092,6.536-16.344L391.47,324.062l115.405-109.869
			C511.477,209.811,513.156,203.175,511.192,197.129z"/>
	</g>
</g>
<g>
</g>
<g>
</g>
<g>
</g>
<g>
</g>
<g>
</g>
<g>
</g>
<g>
</g>
<g>
</g>
<g>
</g>
<g>
</g>
<g>
</g>
<g>
</g>
<g>
</g>
<g>
</g>
<g>
</g>
</svg>
